<mxfile host="app.diagrams.net" modified="2023-05-15T13:31:03.307Z" agent="Mozilla/5.0 (Windows NT 10.0; Win64; x64) AppleWebKit/537.36 (KHTML, like Gecko) Chrome/111.0.0.0 Safari/537.36 OPR/97.0.0.0" etag="ZDmfFdXk5oV-_r1xqJxP" version="21.2.7">
  <diagram name="Seite-1" id="xPqZ9cKaqRI0z6hkNQuW">
    <mxGraphModel dx="961" dy="523" grid="1" gridSize="10" guides="1" tooltips="1" connect="1" arrows="1" fold="1" page="1" pageScale="1" pageWidth="827" pageHeight="1169" math="0" shadow="0">
      <root>
        <mxCell id="0" />
        <mxCell id="1" parent="0" />
        <mxCell id="MJCjCd4tkhjSfopSxuoc-7" style="edgeStyle=orthogonalEdgeStyle;rounded=0;orthogonalLoop=1;jettySize=auto;html=1;exitX=0.5;exitY=0;exitDx=0;exitDy=0;entryX=0.5;entryY=1;entryDx=0;entryDy=0;endArrow=block;endFill=0;endSize=12;" edge="1" parent="1" source="MJCjCd4tkhjSfopSxuoc-1" target="MJCjCd4tkhjSfopSxuoc-6">
          <mxGeometry relative="1" as="geometry" />
        </mxCell>
        <mxCell id="MJCjCd4tkhjSfopSxuoc-1" value="Trap" style="rounded=0;whiteSpace=wrap;html=1;" vertex="1" parent="1">
          <mxGeometry x="380" y="190" width="200" height="20" as="geometry" />
        </mxCell>
        <mxCell id="MJCjCd4tkhjSfopSxuoc-2" value="# idleAnimation: String&lt;br&gt;# activationAnimation: String&lt;br&gt;- ac: AnimationComponent" style="rounded=0;whiteSpace=wrap;html=1;align=left;" vertex="1" parent="1">
          <mxGeometry x="380" y="210" width="200" height="60" as="geometry" />
        </mxCell>
        <mxCell id="MJCjCd4tkhjSfopSxuoc-3" value="+ Trap(idleAnimation: String, activationAnimation: String, entered: ICollide, left: ICollide): void&lt;br&gt;+ setactivationAnimation(): void" style="rounded=0;whiteSpace=wrap;html=1;align=left;" vertex="1" parent="1">
          <mxGeometry x="380" y="270" width="200" height="70" as="geometry" />
        </mxCell>
        <mxCell id="MJCjCd4tkhjSfopSxuoc-30" style="edgeStyle=orthogonalEdgeStyle;rounded=0;orthogonalLoop=1;jettySize=auto;html=1;exitX=0.5;exitY=0;exitDx=0;exitDy=0;entryX=0.5;entryY=1;entryDx=0;entryDy=0;endArrow=block;endFill=0;endSize=12;" edge="1" parent="1" source="MJCjCd4tkhjSfopSxuoc-5" target="MJCjCd4tkhjSfopSxuoc-3">
          <mxGeometry relative="1" as="geometry" />
        </mxCell>
        <mxCell id="MJCjCd4tkhjSfopSxuoc-5" value="SpikeTrap" style="rounded=0;whiteSpace=wrap;html=1;" vertex="1" parent="1">
          <mxGeometry x="520" y="410" width="120" height="30" as="geometry" />
        </mxCell>
        <mxCell id="MJCjCd4tkhjSfopSxuoc-6" value="Entity" style="rounded=0;whiteSpace=wrap;html=1;" vertex="1" parent="1">
          <mxGeometry x="420" y="60" width="120" height="60" as="geometry" />
        </mxCell>
        <mxCell id="MJCjCd4tkhjSfopSxuoc-26" style="edgeStyle=orthogonalEdgeStyle;rounded=0;orthogonalLoop=1;jettySize=auto;html=1;exitX=0.5;exitY=0;exitDx=0;exitDy=0;endArrow=block;endFill=0;entryX=0.5;entryY=1;entryDx=0;entryDy=0;endSize=12;" edge="1" parent="1" source="MJCjCd4tkhjSfopSxuoc-10" target="MJCjCd4tkhjSfopSxuoc-6">
          <mxGeometry relative="1" as="geometry">
            <mxPoint x="480" y="140" as="targetPoint" />
          </mxGeometry>
        </mxCell>
        <mxCell id="MJCjCd4tkhjSfopSxuoc-10" value="Lever" style="rounded=0;whiteSpace=wrap;html=1;" vertex="1" parent="1">
          <mxGeometry x="220" y="190" width="130" height="30" as="geometry" />
        </mxCell>
        <mxCell id="MJCjCd4tkhjSfopSxuoc-31" style="edgeStyle=orthogonalEdgeStyle;rounded=0;orthogonalLoop=1;jettySize=auto;html=1;exitX=0.5;exitY=1;exitDx=0;exitDy=0;entryX=0;entryY=0.5;entryDx=0;entryDy=0;endArrow=diamondThin;endFill=1;" edge="1" parent="1" source="MJCjCd4tkhjSfopSxuoc-11" target="MJCjCd4tkhjSfopSxuoc-32">
          <mxGeometry relative="1" as="geometry">
            <mxPoint x="300" y="485" as="targetPoint" />
          </mxGeometry>
        </mxCell>
        <mxCell id="MJCjCd4tkhjSfopSxuoc-11" value="+ lever(): void&lt;br&gt;+ getpressed(): boolean" style="rounded=0;whiteSpace=wrap;html=1;align=left;" vertex="1" parent="1">
          <mxGeometry x="220" y="250" width="130" height="60" as="geometry" />
        </mxCell>
        <mxCell id="MJCjCd4tkhjSfopSxuoc-25" value="- pressed: boolean" style="rounded=0;whiteSpace=wrap;html=1;align=left;" vertex="1" parent="1">
          <mxGeometry x="220" y="220" width="130" height="30" as="geometry" />
        </mxCell>
        <mxCell id="MJCjCd4tkhjSfopSxuoc-27" value="+ SpikeTrap(): void" style="rounded=0;whiteSpace=wrap;html=1;align=left;" vertex="1" parent="1">
          <mxGeometry x="520" y="440" width="120" height="30" as="geometry" />
        </mxCell>
        <mxCell id="MJCjCd4tkhjSfopSxuoc-29" style="edgeStyle=orthogonalEdgeStyle;rounded=0;orthogonalLoop=1;jettySize=auto;html=1;exitX=0.5;exitY=0;exitDx=0;exitDy=0;entryX=0.5;entryY=1;entryDx=0;entryDy=0;endArrow=block;endFill=0;endSize=12;" edge="1" parent="1" source="MJCjCd4tkhjSfopSxuoc-28" target="MJCjCd4tkhjSfopSxuoc-3">
          <mxGeometry relative="1" as="geometry" />
        </mxCell>
        <mxCell id="MJCjCd4tkhjSfopSxuoc-28" value="ArrowTrap" style="rounded=0;whiteSpace=wrap;html=1;" vertex="1" parent="1">
          <mxGeometry x="320" y="410" width="130" height="30" as="geometry" />
        </mxCell>
        <mxCell id="MJCjCd4tkhjSfopSxuoc-32" value="- skill: Skill&lt;br&gt;- lever: Lever" style="rounded=0;whiteSpace=wrap;html=1;align=left;" vertex="1" parent="1">
          <mxGeometry x="320" y="440" width="130" height="40" as="geometry" />
        </mxCell>
        <mxCell id="MJCjCd4tkhjSfopSxuoc-35" style="edgeStyle=orthogonalEdgeStyle;rounded=0;orthogonalLoop=1;jettySize=auto;html=1;exitX=1;exitY=0.5;exitDx=0;exitDy=0;entryX=0;entryY=0.5;entryDx=0;entryDy=0;endArrow=diamondThin;endFill=1;endSize=12;" edge="1" parent="1" source="MJCjCd4tkhjSfopSxuoc-33" target="MJCjCd4tkhjSfopSxuoc-32">
          <mxGeometry relative="1" as="geometry" />
        </mxCell>
        <mxCell id="MJCjCd4tkhjSfopSxuoc-33" value="BouncingArrowSkill" style="rounded=0;whiteSpace=wrap;html=1;" vertex="1" parent="1">
          <mxGeometry x="130" y="430" width="120" height="60" as="geometry" />
        </mxCell>
        <mxCell id="MJCjCd4tkhjSfopSxuoc-34" value="+ ArrowTrap(): void&lt;br&gt;- setupPosition(): void" style="rounded=0;whiteSpace=wrap;html=1;align=left;" vertex="1" parent="1">
          <mxGeometry x="320" y="480" width="130" height="40" as="geometry" />
        </mxCell>
      </root>
    </mxGraphModel>
  </diagram>
</mxfile>
